# xmcd
#
# Track frame offsets:
#	150
#	12639
#	24821
#	31548
#	44378
#	54175
#	64072
#	73752
#	82060
#	92688
#	104287
#	114272
#	125196
#	136099
#	148009
#	158418
#
# Disc length: 2260 seconds
#
# Revision: 0
# Processed by: cddbd v1.5.2PL0 Copyright (c) Steve Scherf et al.
# Submitted via: audiograbber 1.83.01
#
DISCID=cb08d210
DTITLE=Johnny Cash - Old Golden Hits
DYEAR=1900
DGENRE=
TTITLE0=I walk the line
TTITLE1=next in line
TTITLE2=you are my baby
TTITLE3=Folsom Prison Blues
TTITLE4=hey porter
TTITLE5=get rhythm
TTITLE6=rock island line
TTITLE7=country boy
TTITLE8=train of love
TTITLE9=big river
TTITLE10=ballad of a teenage queen
TTITLE11=cry, cry, cry
TTITLE12=belshazah
TTITLE13=so doggone lonesome
TTITLE14=there you go
TTITLE15=don't make me go
EXTD=
EXTT0=
EXTT1=
EXTT2=
EXTT3=
EXTT4=
EXTT5=
EXTT6=
EXTT7=
EXTT8=
EXTT9=
EXTT10=
EXTT11=
EXTT12=
EXTT13=
EXTT14=
EXTT15=
PLAYORDER=
